<svg width="120" height="41" viewBox="0 0 120 41" fill="none" xmlns="http://www.w3.org/2000/svg">
<path d="M60.3774 28.5928V14.2168H54.7854V11.6728H69.0654V14.2168H63.4734V28.5928H60.3774ZM69.1137 28.5928V19.5688C69.1137 19.0568 69.0977 18.5368 69.0657 18.0088C69.0497 17.4808 69.0097 16.9688 68.9457 16.4728H71.8497L72.1857 19.7848H71.7057C71.8657 18.9848 72.1297 18.3208 72.4977 17.7928C72.8817 17.2648 73.3457 16.8728 73.8897 16.6168C74.4337 16.3608 75.0257 16.2328 75.6657 16.2328C75.9537 16.2328 76.1857 16.2488 76.3617 16.2808C76.5377 16.2968 76.7137 16.3368 76.8897 16.4008L76.8657 19.0408C76.5617 18.9128 76.2977 18.8328 76.0737 18.8008C75.8657 18.7688 75.6017 18.7528 75.2817 18.7528C74.5937 18.7528 74.0097 18.8968 73.5297 19.1848C73.0657 19.4728 72.7137 19.8728 72.4737 20.3848C72.2497 20.8968 72.1377 21.4808 72.1377 22.1368V28.5928H69.1137ZM83.1224 28.8328C82.0664 28.8328 81.1384 28.5848 80.3384 28.0888C79.5384 27.5768 78.9144 26.8488 78.4664 25.9048C78.0184 24.9608 77.7944 23.8328 77.7944 22.5208C77.7944 21.2088 78.0184 20.0888 78.4664 19.1608C78.9144 18.2168 79.5384 17.4968 80.3384 17.0008C81.1384 16.4888 82.0664 16.2328 83.1224 16.2328C84.1464 16.2328 85.0424 16.4888 85.8104 17.0008C86.5944 17.4968 87.1144 18.1688 87.3704 19.0168H87.1064L87.3704 16.4728H90.2504C90.2024 16.9688 90.1544 17.4728 90.1064 17.9848C90.0744 18.4968 90.0584 19.0008 90.0584 19.4968V28.5928H87.0824L87.0584 26.0968H87.3464C87.0904 26.9288 86.5704 27.5928 85.7864 28.0888C85.0024 28.5848 84.1144 28.8328 83.1224 28.8328ZM83.9624 26.5288C84.9064 26.5288 85.6664 26.2008 86.2424 25.5448C86.8184 24.8728 87.1064 23.8648 87.1064 22.5208C87.1064 21.1768 86.8184 20.1768 86.2424 19.5208C85.6664 18.8648 84.9064 18.5368 83.9624 18.5368C83.0184 18.5368 82.2584 18.8648 81.6824 19.5208C81.1064 20.1768 80.8184 21.1768 80.8184 22.5208C80.8184 23.8648 81.0984 24.8728 81.6584 25.5448C82.2344 26.2008 83.0024 26.5288 83.9624 26.5288ZM93.3252 28.5928V10.9288H96.3252V28.5928H93.3252ZM99.583 28.5928V16.4728H102.583V28.5928H99.583ZM99.415 14.1928V11.2648H102.751V14.1928H99.415ZM111.313 28.8328C110.065 28.8328 108.985 28.5768 108.073 28.0648C107.161 27.5528 106.449 26.8248 105.937 25.8808C105.441 24.9368 105.193 23.8168 105.193 22.5208C105.193 21.2248 105.441 20.1128 105.937 19.1848C106.449 18.2408 107.161 17.5128 108.073 17.0008C108.985 16.4888 110.065 16.2328 111.313 16.2328C112.561 16.2328 113.641 16.4888 114.553 17.0008C115.481 17.5128 116.193 18.2408 116.689 19.1848C117.201 20.1128 117.457 21.2248 117.457 22.5208C117.457 23.8168 117.201 24.9368 116.689 25.8808C116.193 26.8248 115.481 27.5528 114.553 28.0648C113.641 28.5768 112.561 28.8328 111.313 28.8328ZM111.313 26.5288C112.257 26.5288 113.009 26.2008 113.569 25.5448C114.129 24.8728 114.409 23.8648 114.409 22.5208C114.409 21.1768 114.129 20.1768 113.569 19.5208C113.009 18.8648 112.257 18.5368 111.313 18.5368C110.369 18.5368 109.617 18.8648 109.057 19.5208C108.497 20.1768 108.217 21.1768 108.217 22.5208C108.217 23.8648 108.497 24.8728 109.057 25.5448C109.617 26.2008 110.369 26.5288 111.313 26.5288Z" fill="#233348"/>
<ellipse cx="21.5523" cy="20.5" rx="20.7959" ry="20.5" fill="#458FF6"/>
<path d="M20.2881 28.728V13.154H14.2301V10.398H29.7001V13.154H23.6421V28.728H20.2881Z" fill="white"/>
</svg>
